<svg fill="#000000" width="16px" height="16px" viewBox="-0.08 -0.06 0.48 0.48" xmlns="http://www.w3.org/2000/svg" preserveAspectRatio="xMinYMin" class="jam jam-beer">
    <path d="M0.04 0.12v0.18a0.02 0.02 0 0 0 0.02 0.02h0.12A0.02 0.02 0 0 0 0.2 0.3V0.12H0.04zm0.2 0h0.02a0.06 0.06 0 0 1 0.06 0.06v0.06a0.06 0.06 0 0 1 -0.06 0.06H0.24a0.06 0.06 0 0 1 -0.06 0.06H0.06A0.06 0.06 0 0 1 0 0.3V0.12A0.04 0.04 0 0 1 0.04 0.08H0.2a0.04 0.04 0 0 1 0.04 0.04zm0 0.04v0.1h0.02A0.02 0.02 0 0 0 0.28 0.24V0.18A0.02 0.02 0 0 0 0.26 0.16H0.24zm-0.16 0a0.02 0.02 0 0 1 0.02 0.02v0.08a0.02 0.02 0 0 1 -0.04 0V0.18A0.02 0.02 0 0 1 0.08 0.16zm0.08 0a0.02 0.02 0 0 1 0.02 0.02v0.08a0.02 0.02 0 0 1 -0.04 0V0.18A0.02 0.02 0 0 1 0.16 0.16zM0.13 0A0.09 0.09 0 0 1 0.22 0.09V0.12H0V0.09A0.07 0.07 0 0 1 0.073 0.02 0.09 0.09 0 0 1 0.13 0zM0.04 0.08h0.14A0.04 0.04 0 0 0 0.14 0.04H0.12a0.04 0.04 0 0 0 -0.035 0.021A0.02 0.02 0 0 0 0.08 0.06H0.06a0.02 0.02 0 0 0 -0.02 0.02z"/>
</svg>
